<?xml version="1.0" encoding="UTF-8" standalone="no"?>
<!DOCTYPE svg PUBLIC "-//W3C//DTD SVG 1.1//EN"
 "http://www.w3.org/Graphics/SVG/1.1/DTD/svg11.dtd">
<!-- Generated by graphviz version 5.0.0 (20220707.1540)
 -->
<!-- Title: D:/codes/Tao/src/Runtime/Core/src/Application.cpp Pages: 1 -->
<svg width="443pt" height="151pt"
 viewBox="0.00 0.00 442.50 151.00" xmlns="http://www.w3.org/2000/svg" xmlns:xlink="http://www.w3.org/1999/xlink">
<g id="graph0" class="graph" transform="scale(1 1) rotate(0) translate(4 147)">
<title>D:/codes/Tao/src/Runtime/Core/src/Application.cpp</title>
<!-- Node1 -->
<g id="node1" class="node">
<title>Node1</title>
<g id="a_node1"><a xlink:title=" ">
<polygon fill="#bfbfbf" stroke="black" points="200.5,-112.5 200.5,-142.5 330.5,-142.5 330.5,-112.5 200.5,-112.5"/>
<text text-anchor="start" x="208.5" y="-130.5" font-family="Helvetica,sans-Serif" font-size="10.00">D:/codes/Tao/src/Runtime</text>
<text text-anchor="middle" x="265.5" y="-119.5" font-family="Helvetica,sans-Serif" font-size="10.00">/Core/src/Application.cpp</text>
</a>
</g>
</g>
<!-- Node2 -->
<g id="node2" class="node">
<title>Node2</title>
<g id="a_node2"><a xlink:href="_core_2include_2_tao_2_core_2index_8h.html" target="_top" xlink:title=" ">
<polygon fill="none" stroke="black" points="91.5,-56.5 91.5,-75.5 181.5,-75.5 181.5,-56.5 91.5,-56.5"/>
<text text-anchor="middle" x="136.5" y="-63.5" font-family="Helvetica,sans-Serif" font-size="10.00">Tao/Core/index.h</text>
</a>
</g>
</g>
<!-- Node1&#45;&gt;Node2 -->
<g id="edge1" class="edge">
<title>Node1&#45;&gt;Node2</title>
<path fill="none" stroke="midnightblue" d="M234.93,-112.4C213.57,-102.55 185.28,-89.5 164.52,-79.92"/>
<polygon fill="midnightblue" stroke="midnightblue" points="165.82,-76.67 155.27,-75.66 162.89,-83.02 165.82,-76.67"/>
</g>
<!-- Node5 -->
<g id="node5" class="node">
<title>Node5</title>
<g id="a_node5"><a xlink:title=" ">
<polygon fill="none" stroke="#bfbfbf" points="182,-0.5 182,-19.5 243,-19.5 243,-0.5 182,-0.5"/>
<text text-anchor="middle" x="212.5" y="-7.5" font-family="Helvetica,sans-Serif" font-size="10.00">filesystem</text>
</a>
</g>
</g>
<!-- Node1&#45;&gt;Node5 -->
<g id="edge7" class="edge">
<title>Node1&#45;&gt;Node5</title>
<path fill="none" stroke="midnightblue" d="M253.28,-112.36C245.48,-102.69 235.7,-89.26 229.5,-76 222.55,-61.14 218.11,-42.99 215.51,-29.65"/>
<polygon fill="midnightblue" stroke="midnightblue" points="218.95,-28.99 213.75,-19.76 212.06,-30.21 218.95,-28.99"/>
</g>
<!-- Node6 -->
<g id="node6" class="node">
<title>Node6</title>
<g id="a_node6"><a xlink:title=" ">
<polygon fill="none" stroke="#bfbfbf" points="238.5,-56.5 238.5,-75.5 292.5,-75.5 292.5,-56.5 238.5,-56.5"/>
<text text-anchor="middle" x="265.5" y="-63.5" font-family="Helvetica,sans-Serif" font-size="10.00">iostream</text>
</a>
</g>
</g>
<!-- Node1&#45;&gt;Node6 -->
<g id="edge5" class="edge">
<title>Node1&#45;&gt;Node6</title>
<path fill="none" stroke="midnightblue" d="M265.5,-112.4C265.5,-104.47 265.5,-94.46 265.5,-85.86"/>
<polygon fill="midnightblue" stroke="midnightblue" points="269,-85.66 265.5,-75.66 262,-85.66 269,-85.66"/>
</g>
<!-- Node7 -->
<g id="node7" class="node">
<title>Node7</title>
<g id="a_node7"><a xlink:title=" ">
<polygon fill="none" stroke="#bfbfbf" points="311,-56.5 311,-75.5 352,-75.5 352,-56.5 311,-56.5"/>
<text text-anchor="middle" x="331.5" y="-63.5" font-family="Helvetica,sans-Serif" font-size="10.00">string</text>
</a>
</g>
</g>
<!-- Node1&#45;&gt;Node7 -->
<g id="edge6" class="edge">
<title>Node1&#45;&gt;Node7</title>
<path fill="none" stroke="midnightblue" d="M281.14,-112.4C291.13,-103.4 304.08,-91.72 314.35,-82.47"/>
<polygon fill="midnightblue" stroke="midnightblue" points="316.81,-84.95 321.9,-75.66 312.13,-79.75 316.81,-84.95"/>
</g>
<!-- Node8 -->
<g id="node8" class="node">
<title>Node8</title>
<g id="a_node8"><a xlink:title=" ">
<polygon fill="none" stroke="#bfbfbf" points="370.5,-56.5 370.5,-75.5 434.5,-75.5 434.5,-56.5 370.5,-56.5"/>
<text text-anchor="middle" x="402.5" y="-63.5" font-family="Helvetica,sans-Serif" font-size="10.00">sol/sol.hpp</text>
</a>
</g>
</g>
<!-- Node1&#45;&gt;Node8 -->
<g id="edge8" class="edge">
<title>Node1&#45;&gt;Node8</title>
<path fill="none" stroke="midnightblue" d="M297.97,-112.4C320.85,-102.46 351.23,-89.26 373.34,-79.66"/>
<polygon fill="midnightblue" stroke="midnightblue" points="374.79,-82.85 382.57,-75.66 372,-76.43 374.79,-82.85"/>
</g>
<!-- Node3 -->
<g id="node3" class="node">
<title>Node3</title>
<g id="a_node3"><a xlink:title=" ">
<polygon fill="none" stroke="#bfbfbf" points="0,-0.5 0,-19.5 87,-19.5 87,-0.5 0,-0.5"/>
<text text-anchor="middle" x="43.5" y="-7.5" font-family="Helvetica,sans-Serif" font-size="10.00">cpp&#45;utilities/dll.h</text>
</a>
</g>
</g>
<!-- Node2&#45;&gt;Node3 -->
<g id="edge2" class="edge">
<title>Node2&#45;&gt;Node3</title>
<path fill="none" stroke="midnightblue" d="M121.56,-56.32C106.91,-47.82 84.37,-34.73 67.26,-24.8"/>
<polygon fill="midnightblue" stroke="midnightblue" points="68.81,-21.65 58.4,-19.65 65.3,-27.7 68.81,-21.65"/>
</g>
<!-- Node4 -->
<g id="node4" class="node">
<title>Node4</title>
<g id="a_node4"><a xlink:title=" ">
<polygon fill="none" stroke="#bfbfbf" points="105,-0.5 105,-19.5 164,-19.5 164,-0.5 105,-0.5"/>
<text text-anchor="middle" x="134.5" y="-7.5" font-family="Helvetica,sans-Serif" font-size="10.00">cmdline.h</text>
</a>
</g>
</g>
<!-- Node2&#45;&gt;Node4 -->
<g id="edge3" class="edge">
<title>Node2&#45;&gt;Node4</title>
<path fill="none" stroke="midnightblue" d="M136.17,-56.08C135.91,-49.01 135.53,-38.86 135.2,-29.99"/>
<polygon fill="midnightblue" stroke="midnightblue" points="138.69,-29.61 134.82,-19.75 131.7,-29.87 138.69,-29.61"/>
</g>
<!-- Node2&#45;&gt;Node5 -->
<g id="edge4" class="edge">
<title>Node2&#45;&gt;Node5</title>
<path fill="none" stroke="midnightblue" d="M148.71,-56.32C160.28,-48.11 177.88,-35.6 191.66,-25.81"/>
<polygon fill="midnightblue" stroke="midnightblue" points="193.94,-28.48 200.07,-19.83 189.89,-22.77 193.94,-28.48"/>
</g>
</g>
</svg>
