<?xml version="1.0" encoding="UTF-8" standalone="no"?>
<!DOCTYPE svg PUBLIC "-//W3C//DTD SVG 1.1//EN"
 "http://www.w3.org/Graphics/SVG/1.1/DTD/svg11.dtd">
<!-- Generated by graphviz version 5.0.0 (20220707.1540)
 -->
<!-- Title: D:/codes/Tao/src/Runtime/Core/include/Tao/Core/index.h Pages: 1 -->
<svg width="251pt" height="106pt"
 viewBox="0.00 0.00 251.00 106.00" xmlns="http://www.w3.org/2000/svg" xmlns:xlink="http://www.w3.org/1999/xlink">
<g id="graph0" class="graph" transform="scale(1 1) rotate(0) translate(4 102)">
<title>D:/codes/Tao/src/Runtime/Core/include/Tao/Core/index.h</title>
<!-- Node1 -->
<g id="node1" class="node">
<title>Node1</title>
<g id="a_node1"><a xlink:title=" ">
<polygon fill="#bfbfbf" stroke="black" points="69.5,-56.5 69.5,-97.5 199.5,-97.5 199.5,-56.5 69.5,-56.5"/>
<text text-anchor="start" x="77.5" y="-85.5" font-family="Helvetica,sans-Serif" font-size="10.00">D:/codes/Tao/src/Runtime</text>
<text text-anchor="start" x="77.5" y="-74.5" font-family="Helvetica,sans-Serif" font-size="10.00">/Core/include/Tao/Core</text>
<text text-anchor="middle" x="134.5" y="-63.5" font-family="Helvetica,sans-Serif" font-size="10.00">/index.h</text>
</a>
</g>
</g>
<!-- Node2 -->
<g id="node2" class="node">
<title>Node2</title>
<g id="a_node2"><a xlink:title=" ">
<polygon fill="none" stroke="#bfbfbf" points="0,-0.5 0,-19.5 87,-19.5 87,-0.5 0,-0.5"/>
<text text-anchor="middle" x="43.5" y="-7.5" font-family="Helvetica,sans-Serif" font-size="10.00">cpp&#45;utilities/dll.h</text>
</a>
</g>
</g>
<!-- Node1&#45;&gt;Node2 -->
<g id="edge1" class="edge">
<title>Node1&#45;&gt;Node2</title>
<path fill="none" stroke="midnightblue" d="M107.2,-56.5C93.24,-46.53 76.56,-34.61 63.77,-25.48"/>
<polygon fill="midnightblue" stroke="midnightblue" points="65.79,-22.62 55.61,-19.65 61.72,-28.31 65.79,-22.62"/>
</g>
<!-- Node3 -->
<g id="node3" class="node">
<title>Node3</title>
<g id="a_node3"><a xlink:title=" ">
<polygon fill="none" stroke="#bfbfbf" points="105,-0.5 105,-19.5 164,-19.5 164,-0.5 105,-0.5"/>
<text text-anchor="middle" x="134.5" y="-7.5" font-family="Helvetica,sans-Serif" font-size="10.00">cmdline.h</text>
</a>
</g>
</g>
<!-- Node1&#45;&gt;Node3 -->
<g id="edge2" class="edge">
<title>Node1&#45;&gt;Node3</title>
<path fill="none" stroke="midnightblue" d="M134.5,-56.5C134.5,-48.07 134.5,-38.24 134.5,-29.87"/>
<polygon fill="midnightblue" stroke="midnightblue" points="138,-29.65 134.5,-19.65 131,-29.65 138,-29.65"/>
</g>
<!-- Node4 -->
<g id="node4" class="node">
<title>Node4</title>
<g id="a_node4"><a xlink:title=" ">
<polygon fill="none" stroke="#bfbfbf" points="182,-0.5 182,-19.5 243,-19.5 243,-0.5 182,-0.5"/>
<text text-anchor="middle" x="212.5" y="-7.5" font-family="Helvetica,sans-Serif" font-size="10.00">filesystem</text>
</a>
</g>
</g>
<!-- Node1&#45;&gt;Node4 -->
<g id="edge3" class="edge">
<title>Node1&#45;&gt;Node4</title>
<path fill="none" stroke="midnightblue" d="M157.9,-56.5C169.52,-46.82 183.34,-35.3 194.17,-26.27"/>
<polygon fill="midnightblue" stroke="midnightblue" points="196.68,-28.74 202.12,-19.65 192.19,-23.37 196.68,-28.74"/>
</g>
</g>
</svg>
