<?xml version="1.0" encoding="UTF-8" standalone="no"?>
<!DOCTYPE svg PUBLIC "-//W3C//DTD SVG 1.1//EN"
 "http://www.w3.org/Graphics/SVG/1.1/DTD/svg11.dtd">
<!-- Generated by graphviz version 5.0.0 (20220707.1540)
 -->
<!-- Title: D:/codes/Tao/src/Runtime/Core/include/Tao/Core/index.h Pages: 1 -->
<svg width="268pt" height="117pt"
 viewBox="0.00 0.00 267.50 117.00" xmlns="http://www.w3.org/2000/svg" xmlns:xlink="http://www.w3.org/1999/xlink">
<g id="graph0" class="graph" transform="scale(1 1) rotate(0) translate(4 113)">
<title>D:/codes/Tao/src/Runtime/Core/include/Tao/Core/index.h</title>
<!-- Node1 -->
<g id="node1" class="node">
<title>Node1</title>
<g id="a_node1"><a xlink:title=" ">
<polygon fill="#bfbfbf" stroke="black" points="59.5,-67.5 59.5,-108.5 189.5,-108.5 189.5,-67.5 59.5,-67.5"/>
<text text-anchor="start" x="67.5" y="-96.5" font-family="Helvetica,sans-Serif" font-size="10.00">D:/codes/Tao/src/Runtime</text>
<text text-anchor="start" x="67.5" y="-85.5" font-family="Helvetica,sans-Serif" font-size="10.00">/Core/include/Tao/Core</text>
<text text-anchor="middle" x="124.5" y="-74.5" font-family="Helvetica,sans-Serif" font-size="10.00">/index.h</text>
</a>
</g>
</g>
<!-- Node2 -->
<g id="node2" class="node">
<title>Node2</title>
<g id="a_node2"><a xlink:href="main_8cpp.html" target="_top" xlink:title=" ">
<polygon fill="none" stroke="black" points="0,-0.5 0,-30.5 111,-30.5 111,-0.5 0,-0.5"/>
<text text-anchor="start" x="8" y="-18.5" font-family="Helvetica,sans-Serif" font-size="10.00">D:/codes/Tao/src/App</text>
<text text-anchor="middle" x="55.5" y="-7.5" font-family="Helvetica,sans-Serif" font-size="10.00">/source/main.cpp</text>
</a>
</g>
</g>
<!-- Node1&#45;&gt;Node2 -->
<g id="edge1" class="edge">
<title>Node1&#45;&gt;Node2</title>
<path fill="none" stroke="midnightblue" d="M98.09,-60.02C88.39,-50.11 77.79,-39.27 69.59,-30.89"/>
<polygon fill="midnightblue" stroke="midnightblue" points="95.78,-62.66 105.28,-67.36 100.79,-57.77 95.78,-62.66"/>
</g>
<!-- Node3 -->
<g id="node3" class="node">
<title>Node3</title>
<g id="a_node3"><a xlink:href="_application_8cpp.html" target="_top" xlink:title=" ">
<polygon fill="none" stroke="black" points="129.5,-0.5 129.5,-30.5 259.5,-30.5 259.5,-0.5 129.5,-0.5"/>
<text text-anchor="start" x="137.5" y="-18.5" font-family="Helvetica,sans-Serif" font-size="10.00">D:/codes/Tao/src/Runtime</text>
<text text-anchor="middle" x="194.5" y="-7.5" font-family="Helvetica,sans-Serif" font-size="10.00">/Core/src/Application.cpp</text>
</a>
</g>
</g>
<!-- Node1&#45;&gt;Node3 -->
<g id="edge2" class="edge">
<title>Node1&#45;&gt;Node3</title>
<path fill="none" stroke="midnightblue" d="M151.29,-60.02C161.13,-50.11 171.89,-39.27 180.21,-30.89"/>
<polygon fill="midnightblue" stroke="midnightblue" points="148.56,-57.8 144,-67.36 153.53,-62.73 148.56,-57.8"/>
</g>
</g>
</svg>
