<?xml version="1.0" encoding="UTF-8" standalone="no"?>
<!DOCTYPE svg PUBLIC "-//W3C//DTD SVG 1.1//EN"
 "http://www.w3.org/Graphics/SVG/1.1/DTD/svg11.dtd">
<!-- Generated by graphviz version 5.0.0 (20220707.1540)
 -->
<!-- Title: D:/codes/Tao/src/Runtime/FrontEnd/include/Tao/FrontEnd/index.h Pages: 1 -->
<svg width="467pt" height="106pt"
 viewBox="0.00 0.00 466.50 106.00" xmlns="http://www.w3.org/2000/svg" xmlns:xlink="http://www.w3.org/1999/xlink">
<g id="graph0" class="graph" transform="scale(1 1) rotate(0) translate(4 102)">
<title>D:/codes/Tao/src/Runtime/FrontEnd/include/Tao/FrontEnd/index.h</title>
<!-- Node1 -->
<g id="node1" class="node">
<title>Node1</title>
<g id="a_node1"><a xlink:title=" ">
<polygon fill="#bfbfbf" stroke="black" points="212,-56.5 212,-97.5 367,-97.5 367,-56.5 212,-56.5"/>
<text text-anchor="start" x="220" y="-85.5" font-family="Helvetica,sans-Serif" font-size="10.00">D:/codes/Tao/src/Runtime</text>
<text text-anchor="start" x="220" y="-74.5" font-family="Helvetica,sans-Serif" font-size="10.00">/FrontEnd/include/Tao/FrontEnd</text>
<text text-anchor="middle" x="289.5" y="-63.5" font-family="Helvetica,sans-Serif" font-size="10.00">/index.h</text>
</a>
</g>
</g>
<!-- Node2 -->
<g id="node2" class="node">
<title>Node2</title>
<g id="a_node2"><a xlink:title=" ">
<polygon fill="none" stroke="#bfbfbf" points="0,-0.5 0,-19.5 127,-19.5 127,-0.5 0,-0.5"/>
<text text-anchor="middle" x="63.5" y="-7.5" font-family="Helvetica,sans-Serif" font-size="10.00">cpp&#45;utilities/singleton.hpp</text>
</a>
</g>
</g>
<!-- Node1&#45;&gt;Node2 -->
<g id="edge1" class="edge">
<title>Node1&#45;&gt;Node2</title>
<path fill="none" stroke="midnightblue" d="M221.69,-56.5C182.93,-45.35 135.66,-31.76 102.95,-22.35"/>
<polygon fill="midnightblue" stroke="midnightblue" points="103.86,-18.97 93.29,-19.57 101.93,-25.69 103.86,-18.97"/>
</g>
<!-- Node3 -->
<g id="node3" class="node">
<title>Node3</title>
<g id="a_node3"><a xlink:title=" ">
<polygon fill="none" stroke="#bfbfbf" points="145,-0.5 145,-19.5 232,-19.5 232,-0.5 145,-0.5"/>
<text text-anchor="middle" x="188.5" y="-7.5" font-family="Helvetica,sans-Serif" font-size="10.00">cpp&#45;utilities/dll.h</text>
</a>
</g>
</g>
<!-- Node1&#45;&gt;Node3 -->
<g id="edge2" class="edge">
<title>Node1&#45;&gt;Node3</title>
<path fill="none" stroke="midnightblue" d="M259.2,-56.5C243.56,-46.44 224.84,-34.38 210.59,-25.21"/>
<polygon fill="midnightblue" stroke="midnightblue" points="212.25,-22.12 201.94,-19.65 208.46,-28.01 212.25,-22.12"/>
</g>
<!-- Node4 -->
<g id="node4" class="node">
<title>Node4</title>
<g id="a_node4"><a xlink:title=" ">
<polygon fill="none" stroke="#bfbfbf" points="250.5,-0.5 250.5,-19.5 328.5,-19.5 328.5,-0.5 250.5,-0.5"/>
<text text-anchor="middle" x="289.5" y="-7.5" font-family="Helvetica,sans-Serif" font-size="10.00">GLFW/glfw3.h</text>
</a>
</g>
</g>
<!-- Node1&#45;&gt;Node4 -->
<g id="edge3" class="edge">
<title>Node1&#45;&gt;Node4</title>
<path fill="none" stroke="midnightblue" d="M289.5,-56.5C289.5,-48.07 289.5,-38.24 289.5,-29.87"/>
<polygon fill="midnightblue" stroke="midnightblue" points="293,-29.65 289.5,-19.65 286,-29.65 293,-29.65"/>
</g>
<!-- Node5 -->
<g id="node5" class="node">
<title>Node5</title>
<g id="a_node5"><a xlink:title=" ">
<polygon fill="none" stroke="#bfbfbf" points="346.5,-0.5 346.5,-19.5 398.5,-19.5 398.5,-0.5 346.5,-0.5"/>
<text text-anchor="middle" x="372.5" y="-7.5" font-family="Helvetica,sans-Serif" font-size="10.00">memory</text>
</a>
</g>
</g>
<!-- Node1&#45;&gt;Node5 -->
<g id="edge4" class="edge">
<title>Node1&#45;&gt;Node5</title>
<path fill="none" stroke="midnightblue" d="M314.4,-56.5C326.88,-46.72 341.76,-35.07 353.34,-26.01"/>
<polygon fill="midnightblue" stroke="midnightblue" points="355.74,-28.57 361.45,-19.65 351.42,-23.06 355.74,-28.57"/>
</g>
<!-- Node6 -->
<g id="node6" class="node">
<title>Node6</title>
<g id="a_node6"><a xlink:title=" ">
<polygon fill="none" stroke="#bfbfbf" points="416.5,-0.5 416.5,-19.5 458.5,-19.5 458.5,-0.5 416.5,-0.5"/>
<text text-anchor="middle" x="437.5" y="-7.5" font-family="Helvetica,sans-Serif" font-size="10.00">vector</text>
</a>
</g>
</g>
<!-- Node1&#45;&gt;Node6 -->
<g id="edge5" class="edge">
<title>Node1&#45;&gt;Node6</title>
<path fill="none" stroke="midnightblue" d="M333.9,-56.5C358.01,-45.91 387.14,-33.12 408.36,-23.8"/>
<polygon fill="midnightblue" stroke="midnightblue" points="410.05,-26.88 417.8,-19.65 407.24,-20.47 410.05,-26.88"/>
</g>
</g>
</svg>
