<?xml version="1.0" encoding="UTF-8" standalone="no"?>
<!DOCTYPE svg PUBLIC "-//W3C//DTD SVG 1.1//EN"
 "http://www.w3.org/Graphics/SVG/1.1/DTD/svg11.dtd">
<!-- Generated by graphviz version 5.0.0 (20220707.1540)
 -->
<!-- Title: D:/codes/Tao/src/Runtime/FrontEnd/src/Window.cpp Pages: 1 -->
<svg width="483pt" height="151pt"
 viewBox="0.00 0.00 482.50 151.00" xmlns="http://www.w3.org/2000/svg" xmlns:xlink="http://www.w3.org/1999/xlink">
<g id="graph0" class="graph" transform="scale(1 1) rotate(0) translate(4 147)">
<title>D:/codes/Tao/src/Runtime/FrontEnd/src/Window.cpp</title>
<!-- Node1 -->
<g id="node1" class="node">
<title>Node1</title>
<g id="a_node1"><a xlink:title=" ">
<polygon fill="#bfbfbf" stroke="black" points="307.5,-112.5 307.5,-142.5 439.5,-142.5 439.5,-112.5 307.5,-112.5"/>
<text text-anchor="start" x="315.5" y="-130.5" font-family="Helvetica,sans-Serif" font-size="10.00">D:/codes/Tao/src/Runtime</text>
<text text-anchor="middle" x="373.5" y="-119.5" font-family="Helvetica,sans-Serif" font-size="10.00">/FrontEnd/src/Window.cpp</text>
</a>
</g>
</g>
<!-- Node2 -->
<g id="node2" class="node">
<title>Node2</title>
<g id="a_node2"><a xlink:href="_front_end_2include_2_tao_2_front_end_2index_8h.html" target="_top" xlink:title=" ">
<polygon fill="none" stroke="black" points="216.5,-56.5 216.5,-75.5 326.5,-75.5 326.5,-56.5 216.5,-56.5"/>
<text text-anchor="middle" x="271.5" y="-63.5" font-family="Helvetica,sans-Serif" font-size="10.00">Tao/FrontEnd/index.h</text>
</a>
</g>
</g>
<!-- Node1&#45;&gt;Node2 -->
<g id="edge1" class="edge">
<title>Node1&#45;&gt;Node2</title>
<path fill="none" stroke="midnightblue" d="M349.33,-112.4C332.98,-102.86 311.49,-90.32 295.23,-80.84"/>
<polygon fill="midnightblue" stroke="midnightblue" points="296.74,-77.67 286.34,-75.66 293.22,-83.72 296.74,-77.67"/>
</g>
<!-- Node5 -->
<g id="node5" class="node">
<title>Node5</title>
<g id="a_node5"><a xlink:title=" ">
<polygon fill="none" stroke="#bfbfbf" points="310.5,-0.5 310.5,-19.5 388.5,-19.5 388.5,-0.5 310.5,-0.5"/>
<text text-anchor="middle" x="349.5" y="-7.5" font-family="Helvetica,sans-Serif" font-size="10.00">GLFW/glfw3.h</text>
</a>
</g>
</g>
<!-- Node1&#45;&gt;Node5 -->
<g id="edge7" class="edge">
<title>Node1&#45;&gt;Node5</title>
<path fill="none" stroke="midnightblue" d="M370.56,-112.34C366.23,-91.53 358.16,-52.66 353.36,-29.58"/>
<polygon fill="midnightblue" stroke="midnightblue" points="356.76,-28.75 351.3,-19.67 349.91,-30.17 356.76,-28.75"/>
</g>
<!-- Node6 -->
<g id="node6" class="node">
<title>Node6</title>
<g id="a_node6"><a xlink:title=" ">
<polygon fill="none" stroke="#bfbfbf" points="406.5,-0.5 406.5,-19.5 458.5,-19.5 458.5,-0.5 406.5,-0.5"/>
<text text-anchor="middle" x="432.5" y="-7.5" font-family="Helvetica,sans-Serif" font-size="10.00">memory</text>
</a>
</g>
</g>
<!-- Node1&#45;&gt;Node6 -->
<g id="edge9" class="edge">
<title>Node1&#45;&gt;Node6</title>
<path fill="none" stroke="midnightblue" d="M380.73,-112.34C391.51,-91.24 411.76,-51.6 423.48,-28.65"/>
<polygon fill="midnightblue" stroke="midnightblue" points="426.64,-30.17 428.07,-19.67 420.41,-26.98 426.64,-30.17"/>
</g>
<!-- Node8 -->
<g id="node8" class="node">
<title>Node8</title>
<g id="a_node8"><a xlink:title=" ">
<polygon fill="none" stroke="#bfbfbf" points="420.5,-56.5 420.5,-75.5 474.5,-75.5 474.5,-56.5 420.5,-56.5"/>
<text text-anchor="middle" x="447.5" y="-63.5" font-family="Helvetica,sans-Serif" font-size="10.00">iostream</text>
</a>
</g>
</g>
<!-- Node1&#45;&gt;Node8 -->
<g id="edge8" class="edge">
<title>Node1&#45;&gt;Node8</title>
<path fill="none" stroke="midnightblue" d="M391.04,-112.4C402.34,-103.31 417.04,-91.49 428.61,-82.19"/>
<polygon fill="midnightblue" stroke="midnightblue" points="431.13,-84.65 436.73,-75.66 426.75,-79.2 431.13,-84.65"/>
</g>
<!-- Node3 -->
<g id="node3" class="node">
<title>Node3</title>
<g id="a_node3"><a xlink:title=" ">
<polygon fill="none" stroke="#bfbfbf" points="0,-0.5 0,-19.5 127,-19.5 127,-0.5 0,-0.5"/>
<text text-anchor="middle" x="63.5" y="-7.5" font-family="Helvetica,sans-Serif" font-size="10.00">cpp&#45;utilities/singleton.hpp</text>
</a>
</g>
</g>
<!-- Node2&#45;&gt;Node3 -->
<g id="edge2" class="edge">
<title>Node2&#45;&gt;Node3</title>
<path fill="none" stroke="midnightblue" d="M238.54,-56.44C202.71,-47.14 145.34,-32.25 106.11,-22.06"/>
<polygon fill="midnightblue" stroke="midnightblue" points="106.86,-18.64 96.3,-19.52 105.1,-25.42 106.86,-18.64"/>
</g>
<!-- Node4 -->
<g id="node4" class="node">
<title>Node4</title>
<g id="a_node4"><a xlink:title=" ">
<polygon fill="none" stroke="#bfbfbf" points="145,-0.5 145,-19.5 232,-19.5 232,-0.5 145,-0.5"/>
<text text-anchor="middle" x="188.5" y="-7.5" font-family="Helvetica,sans-Serif" font-size="10.00">cpp&#45;utilities/dll.h</text>
</a>
</g>
</g>
<!-- Node2&#45;&gt;Node4 -->
<g id="edge3" class="edge">
<title>Node2&#45;&gt;Node4</title>
<path fill="none" stroke="midnightblue" d="M258.16,-56.32C245.34,-47.98 225.72,-35.21 210.56,-25.35"/>
<polygon fill="midnightblue" stroke="midnightblue" points="212.09,-22.17 201.8,-19.65 208.28,-28.04 212.09,-22.17"/>
</g>
<!-- Node2&#45;&gt;Node5 -->
<g id="edge4" class="edge">
<title>Node2&#45;&gt;Node5</title>
<path fill="none" stroke="midnightblue" d="M284.03,-56.32C296.09,-47.98 314.53,-35.21 328.77,-25.35"/>
<polygon fill="midnightblue" stroke="midnightblue" points="330.77,-28.22 337,-19.65 326.78,-22.47 330.77,-28.22"/>
</g>
<!-- Node2&#45;&gt;Node6 -->
<g id="edge5" class="edge">
<title>Node2&#45;&gt;Node6</title>
<path fill="none" stroke="midnightblue" d="M297.01,-56.44C324.1,-47.36 367.09,-32.94 397.37,-22.78"/>
<polygon fill="midnightblue" stroke="midnightblue" points="398.74,-26.01 407.11,-19.52 396.51,-19.38 398.74,-26.01"/>
</g>
<!-- Node7 -->
<g id="node7" class="node">
<title>Node7</title>
<g id="a_node7"><a xlink:title=" ">
<polygon fill="none" stroke="#bfbfbf" points="250.5,-0.5 250.5,-19.5 292.5,-19.5 292.5,-0.5 250.5,-0.5"/>
<text text-anchor="middle" x="271.5" y="-7.5" font-family="Helvetica,sans-Serif" font-size="10.00">vector</text>
</a>
</g>
</g>
<!-- Node2&#45;&gt;Node7 -->
<g id="edge6" class="edge">
<title>Node2&#45;&gt;Node7</title>
<path fill="none" stroke="midnightblue" d="M271.5,-56.08C271.5,-49.01 271.5,-38.86 271.5,-29.99"/>
<polygon fill="midnightblue" stroke="midnightblue" points="275,-29.75 271.5,-19.75 268,-29.75 275,-29.75"/>
</g>
</g>
</svg>
