<?xml version="1.0" encoding="UTF-8" standalone="no"?>
<!DOCTYPE svg PUBLIC "-//W3C//DTD SVG 1.1//EN"
 "http://www.w3.org/Graphics/SVG/1.1/DTD/svg11.dtd">
<!-- Generated by graphviz version 5.0.0 (20220707.1540)
 -->
<!-- Title: Graphical Class Hierarchy Pages: 1 -->
<svg width="276pt" height="66pt"
 viewBox="0.00 0.00 276.00 66.00" xmlns="http://www.w3.org/2000/svg" xmlns:xlink="http://www.w3.org/1999/xlink">
<g id="graph0" class="graph" transform="scale(1 1) rotate(0) translate(4 62)">
<title>Graphical Class Hierarchy</title>
<!-- Node0 -->
<g id="node1" class="node">
<title>Node0</title>
<g id="a_node1"><a xlink:title=" ">
<polygon fill="none" stroke="#bfbfbf" points="17.5,-38.5 17.5,-57.5 101.5,-57.5 101.5,-38.5 17.5,-38.5"/>
<text text-anchor="middle" x="59.5" y="-45.5" font-family="Helvetica,sans-Serif" font-size="10.00">PublicSingleton</text>
</a>
</g>
</g>
<!-- Node1 -->
<g id="node2" class="node">
<title>Node1</title>
<g id="a_node2"><a xlink:href="class_tao_1_1_front_end_1_1_g_l_f_w___window.html" target="_top" xlink:title=" ">
<polygon fill="none" stroke="black" points="155,-14 155,-44 268,-44 268,-14 155,-14"/>
<text text-anchor="start" x="163" y="-32" font-family="Helvetica,sans-Serif" font-size="10.00">Tao::FrontEnd::GLFW</text>
<text text-anchor="middle" x="211.5" y="-21" font-family="Helvetica,sans-Serif" font-size="10.00">_Window</text>
</a>
</g>
</g>
<!-- Node0&#45;&gt;Node1 -->
<g id="edge1" class="edge">
<title>Node0&#45;&gt;Node1</title>
<path fill="none" stroke="midnightblue" d="M112.17,-41.45C125.97,-39.71 140.93,-37.81 154.93,-36.04"/>
<polygon fill="midnightblue" stroke="midnightblue" points="111.37,-38.03 101.89,-42.76 112.25,-44.97 111.37,-38.03"/>
</g>
<!-- Node2 -->
<g id="node3" class="node">
<title>Node2</title>
<g id="a_node3"><a xlink:href="class_tao_1_1_front_end_1_1_window.html" target="_top" xlink:title=" ">
<polygon fill="none" stroke="black" points="0,-0.5 0,-19.5 119,-19.5 119,-0.5 0,-0.5"/>
<text text-anchor="middle" x="59.5" y="-7.5" font-family="Helvetica,sans-Serif" font-size="10.00">Tao::FrontEnd::Window</text>
</a>
</g>
</g>
<!-- Node2&#45;&gt;Node1 -->
<g id="edge2" class="edge">
<title>Node2&#45;&gt;Node1</title>
<path fill="none" stroke="#8b1a1a" d="M129.29,-18.71C137.82,-19.79 146.46,-20.89 154.76,-21.94"/>
<polygon fill="#8b1a1a" stroke="#8b1a1a" points="129.71,-15.24 119.35,-17.45 128.83,-22.18 129.71,-15.24"/>
</g>
</g>
</svg>
