<?xml version="1.0" encoding="UTF-8" standalone="no"?>
<!DOCTYPE svg PUBLIC "-//W3C//DTD SVG 1.1//EN"
 "http://www.w3.org/Graphics/SVG/1.1/DTD/svg11.dtd">
<!-- Generated by graphviz version 5.0.0 (20220707.1540)
 -->
<!-- Title: D:/codes/Tao/src/App/source/main.cpp Pages: 1 -->
<svg width="623pt" height="162pt"
 viewBox="0.00 0.00 622.50 162.00" xmlns="http://www.w3.org/2000/svg" xmlns:xlink="http://www.w3.org/1999/xlink">
<g id="graph0" class="graph" transform="scale(1 1) rotate(0) translate(4 158)">
<title>D:/codes/Tao/src/App/source/main.cpp</title>
<!-- Node1 -->
<g id="node1" class="node">
<title>Node1</title>
<g id="a_node1"><a xlink:title=" ">
<polygon fill="#bfbfbf" stroke="black" points="206,-123.5 206,-153.5 317,-153.5 317,-123.5 206,-123.5"/>
<text text-anchor="start" x="214" y="-141.5" font-family="Helvetica,sans-Serif" font-size="10.00">D:/codes/Tao/src/App</text>
<text text-anchor="middle" x="261.5" y="-130.5" font-family="Helvetica,sans-Serif" font-size="10.00">/source/main.cpp</text>
</a>
</g>
</g>
<!-- Node2 -->
<g id="node2" class="node">
<title>Node2</title>
<g id="a_node2"><a xlink:title=" ">
<polygon fill="none" stroke="#bfbfbf" points="20.5,-62 20.5,-81 66.5,-81 66.5,-62 20.5,-62"/>
<text text-anchor="middle" x="43.5" y="-69" font-family="Helvetica,sans-Serif" font-size="10.00">chrono</text>
</a>
</g>
</g>
<!-- Node1&#45;&gt;Node2 -->
<g id="edge1" class="edge">
<title>Node1&#45;&gt;Node2</title>
<path fill="none" stroke="midnightblue" d="M205.84,-124.87C168.51,-115.79 118.48,-102.46 75.5,-87 73.88,-86.42 72.23,-85.79 70.58,-85.13"/>
<polygon fill="midnightblue" stroke="midnightblue" points="71.8,-81.85 61.23,-81.14 69.06,-88.29 71.8,-81.85"/>
</g>
<!-- Node3 -->
<g id="node3" class="node">
<title>Node3</title>
<g id="a_node3"><a xlink:title=" ">
<polygon fill="none" stroke="#bfbfbf" points="84.5,-62 84.5,-81 138.5,-81 138.5,-62 84.5,-62"/>
<text text-anchor="middle" x="111.5" y="-69" font-family="Helvetica,sans-Serif" font-size="10.00">iostream</text>
</a>
</g>
</g>
<!-- Node1&#45;&gt;Node3 -->
<g id="edge2" class="edge">
<title>Node1&#45;&gt;Node3</title>
<path fill="none" stroke="midnightblue" d="M228.95,-123.4C202.63,-111.99 165.91,-96.08 140.57,-85.1"/>
<polygon fill="midnightblue" stroke="midnightblue" points="141.7,-81.77 131.13,-81.01 138.92,-88.19 141.7,-81.77"/>
</g>
<!-- Node4 -->
<g id="node4" class="node">
<title>Node4</title>
<g id="a_node4"><a xlink:href="_core_2include_2_tao_2_core_2index_8h.html" target="_top" xlink:title=" ">
<polygon fill="none" stroke="black" points="156.5,-62 156.5,-81 246.5,-81 246.5,-62 156.5,-62"/>
<text text-anchor="middle" x="201.5" y="-69" font-family="Helvetica,sans-Serif" font-size="10.00">Tao/Core/index.h</text>
</a>
</g>
</g>
<!-- Node1&#45;&gt;Node4 -->
<g id="edge3" class="edge">
<title>Node1&#45;&gt;Node4</title>
<path fill="none" stroke="midnightblue" d="M248.48,-123.4C239.03,-113.16 226.23,-99.3 216.38,-88.62"/>
<polygon fill="midnightblue" stroke="midnightblue" points="218.88,-86.17 209.53,-81.19 213.74,-90.92 218.88,-86.17"/>
</g>
<!-- Node8 -->
<g id="node8" class="node">
<title>Node8</title>
<g id="a_node8"><a xlink:href="_front_end_2include_2_tao_2_front_end_2index_8h.html" target="_top" xlink:title=" ">
<polygon fill="none" stroke="black" points="267.5,-62 267.5,-81 377.5,-81 377.5,-62 267.5,-62"/>
<text text-anchor="middle" x="322.5" y="-69" font-family="Helvetica,sans-Serif" font-size="10.00">Tao/FrontEnd/index.h</text>
</a>
</g>
</g>
<!-- Node1&#45;&gt;Node8 -->
<g id="edge7" class="edge">
<title>Node1&#45;&gt;Node8</title>
<path fill="none" stroke="midnightblue" d="M274.74,-123.4C284.34,-113.16 297.35,-99.3 307.37,-88.62"/>
<polygon fill="midnightblue" stroke="midnightblue" points="310.05,-90.88 314.34,-81.19 304.95,-86.09 310.05,-90.88"/>
</g>
<!-- Node13 -->
<g id="node13" class="node">
<title>Node13</title>
<g id="a_node13"><a xlink:title=" ">
<polygon fill="none" stroke="#bfbfbf" points="395.5,-56.5 395.5,-86.5 491.5,-86.5 491.5,-56.5 395.5,-56.5"/>
<text text-anchor="start" x="403.5" y="-74.5" font-family="Helvetica,sans-Serif" font-size="10.00">cpp&#45;utilities/thread</text>
<text text-anchor="middle" x="443.5" y="-63.5" font-family="Helvetica,sans-Serif" font-size="10.00">_pool.h</text>
</a>
</g>
</g>
<!-- Node1&#45;&gt;Node13 -->
<g id="edge13" class="edge">
<title>Node1&#45;&gt;Node13</title>
<path fill="none" stroke="midnightblue" d="M300.99,-123.4C328.42,-113.6 365.15,-100.48 394.46,-90.02"/>
<polygon fill="midnightblue" stroke="midnightblue" points="395.85,-93.24 404.09,-86.58 393.49,-86.64 395.85,-93.24"/>
</g>
<!-- Node14 -->
<g id="node14" class="node">
<title>Node14</title>
<g id="a_node14"><a xlink:title=" ">
<polygon fill="none" stroke="#bfbfbf" points="509.5,-62 509.5,-81 553.5,-81 553.5,-62 509.5,-62"/>
<text text-anchor="middle" x="531.5" y="-69" font-family="Helvetica,sans-Serif" font-size="10.00">thread</text>
</a>
</g>
</g>
<!-- Node1&#45;&gt;Node14 -->
<g id="edge14" class="edge">
<title>Node1&#45;&gt;Node14</title>
<path fill="none" stroke="midnightblue" d="M317.03,-129.47C366.1,-121.51 439.17,-107.52 500.5,-87 502.17,-86.44 503.86,-85.82 505.55,-85.16"/>
<polygon fill="midnightblue" stroke="midnightblue" points="507.27,-88.23 515.06,-81.05 504.49,-81.8 507.27,-88.23"/>
</g>
<!-- Node5 -->
<g id="node5" class="node">
<title>Node5</title>
<g id="a_node5"><a xlink:title=" ">
<polygon fill="none" stroke="#bfbfbf" points="156,-0.5 156,-19.5 243,-19.5 243,-0.5 156,-0.5"/>
<text text-anchor="middle" x="199.5" y="-7.5" font-family="Helvetica,sans-Serif" font-size="10.00">cpp&#45;utilities/dll.h</text>
</a>
</g>
</g>
<!-- Node4&#45;&gt;Node5 -->
<g id="edge4" class="edge">
<title>Node4&#45;&gt;Node5</title>
<path fill="none" stroke="midnightblue" d="M201.21,-61.98C200.93,-53.58 200.49,-40.48 200.13,-29.66"/>
<polygon fill="midnightblue" stroke="midnightblue" points="203.62,-29.39 199.79,-19.51 196.62,-29.62 203.62,-29.39"/>
</g>
<!-- Node6 -->
<g id="node6" class="node">
<title>Node6</title>
<g id="a_node6"><a xlink:title=" ">
<polygon fill="none" stroke="#bfbfbf" points="0,-0.5 0,-19.5 59,-19.5 59,-0.5 0,-0.5"/>
<text text-anchor="middle" x="29.5" y="-7.5" font-family="Helvetica,sans-Serif" font-size="10.00">cmdline.h</text>
</a>
</g>
</g>
<!-- Node4&#45;&gt;Node6 -->
<g id="edge5" class="edge">
<title>Node4&#45;&gt;Node6</title>
<path fill="none" stroke="midnightblue" d="M176.86,-61.98C147.22,-51.72 97.32,-34.46 63.9,-22.9"/>
<polygon fill="midnightblue" stroke="midnightblue" points="64.69,-19.47 54.1,-19.51 62.4,-26.09 64.69,-19.47"/>
</g>
<!-- Node7 -->
<g id="node7" class="node">
<title>Node7</title>
<g id="a_node7"><a xlink:title=" ">
<polygon fill="none" stroke="#bfbfbf" points="77,-0.5 77,-19.5 138,-19.5 138,-0.5 77,-0.5"/>
<text text-anchor="middle" x="107.5" y="-7.5" font-family="Helvetica,sans-Serif" font-size="10.00">filesystem</text>
</a>
</g>
</g>
<!-- Node4&#45;&gt;Node7 -->
<g id="edge6" class="edge">
<title>Node4&#45;&gt;Node7</title>
<path fill="none" stroke="midnightblue" d="M188.03,-61.98C172.82,-52.34 147.81,-36.52 129.7,-25.05"/>
<polygon fill="midnightblue" stroke="midnightblue" points="131.26,-21.9 120.94,-19.51 127.52,-27.81 131.26,-21.9"/>
</g>
<!-- Node8&#45;&gt;Node5 -->
<g id="edge9" class="edge">
<title>Node8&#45;&gt;Node5</title>
<path fill="none" stroke="midnightblue" d="M304.88,-61.98C284.33,-52.03 250.14,-35.49 226.29,-23.96"/>
<polygon fill="midnightblue" stroke="midnightblue" points="227.62,-20.71 217.09,-19.51 224.57,-27.01 227.62,-20.71"/>
</g>
<!-- Node9 -->
<g id="node9" class="node">
<title>Node9</title>
<g id="a_node9"><a xlink:title=" ">
<polygon fill="none" stroke="#bfbfbf" points="261,-0.5 261,-19.5 388,-19.5 388,-0.5 261,-0.5"/>
<text text-anchor="middle" x="324.5" y="-7.5" font-family="Helvetica,sans-Serif" font-size="10.00">cpp&#45;utilities/singleton.hpp</text>
</a>
</g>
</g>
<!-- Node8&#45;&gt;Node9 -->
<g id="edge8" class="edge">
<title>Node8&#45;&gt;Node9</title>
<path fill="none" stroke="midnightblue" d="M322.79,-61.98C323.07,-53.58 323.51,-40.48 323.87,-29.66"/>
<polygon fill="midnightblue" stroke="midnightblue" points="327.38,-29.62 324.21,-19.51 320.38,-29.39 327.38,-29.62"/>
</g>
<!-- Node10 -->
<g id="node10" class="node">
<title>Node10</title>
<g id="a_node10"><a xlink:title=" ">
<polygon fill="none" stroke="#bfbfbf" points="406.5,-0.5 406.5,-19.5 484.5,-19.5 484.5,-0.5 406.5,-0.5"/>
<text text-anchor="middle" x="445.5" y="-7.5" font-family="Helvetica,sans-Serif" font-size="10.00">GLFW/glfw3.h</text>
</a>
</g>
</g>
<!-- Node8&#45;&gt;Node10 -->
<g id="edge10" class="edge">
<title>Node8&#45;&gt;Node10</title>
<path fill="none" stroke="midnightblue" d="M340.12,-61.98C360.67,-52.03 394.86,-35.49 418.71,-23.96"/>
<polygon fill="midnightblue" stroke="midnightblue" points="420.43,-27.01 427.91,-19.51 417.38,-20.71 420.43,-27.01"/>
</g>
<!-- Node11 -->
<g id="node11" class="node">
<title>Node11</title>
<g id="a_node11"><a xlink:title=" ">
<polygon fill="none" stroke="#bfbfbf" points="502.5,-0.5 502.5,-19.5 554.5,-19.5 554.5,-0.5 502.5,-0.5"/>
<text text-anchor="middle" x="528.5" y="-7.5" font-family="Helvetica,sans-Serif" font-size="10.00">memory</text>
</a>
</g>
</g>
<!-- Node8&#45;&gt;Node11 -->
<g id="edge11" class="edge">
<title>Node8&#45;&gt;Node11</title>
<path fill="none" stroke="midnightblue" d="M352.01,-61.98C389.06,-51.27 452.58,-32.93 492.46,-21.41"/>
<polygon fill="midnightblue" stroke="midnightblue" points="493.67,-24.7 502.3,-18.57 491.72,-17.98 493.67,-24.7"/>
</g>
<!-- Node12 -->
<g id="node12" class="node">
<title>Node12</title>
<g id="a_node12"><a xlink:title=" ">
<polygon fill="none" stroke="#bfbfbf" points="572.5,-0.5 572.5,-19.5 614.5,-19.5 614.5,-0.5 572.5,-0.5"/>
<text text-anchor="middle" x="593.5" y="-7.5" font-family="Helvetica,sans-Serif" font-size="10.00">vector</text>
</a>
</g>
</g>
<!-- Node8&#45;&gt;Node12 -->
<g id="edge12" class="edge">
<title>Node8&#45;&gt;Node12</title>
<path fill="none" stroke="midnightblue" d="M359.7,-61.93C368.48,-59.94 377.81,-57.87 386.5,-56 461.92,-39.79 483.94,-39.55 562.4,-20.1"/>
<polygon fill="midnightblue" stroke="midnightblue" points="563.41,-23.46 572.26,-17.63 561.71,-16.67 563.41,-23.46"/>
</g>
</g>
</svg>
